<svg width="177" height="177" viewBox="0 0 177 177" fill="none" xmlns="http://www.w3.org/2000/svg">
<g filter="url(#filter0_d)">
<path d="M99.2591 27.7409C93.1756 21.6573 85.4246 17.5143 76.9864 15.8358C68.5482 14.1574 59.8018 15.0188 51.8533 18.3112C43.9047 21.6037 37.1109 27.1792 32.3311 34.3327C27.5512 41.4862 25 49.8965 25 58.5C25 67.1035 27.5512 75.5138 32.3311 82.6673C37.1109 89.8208 43.9047 95.3964 51.8533 98.6888C59.8019 101.981 68.5483 102.843 76.9864 101.164C85.4246 99.4857 93.1756 95.3427 99.2591 89.2591L90.7661 80.7661C86.3623 85.1699 80.7515 88.1689 74.6432 89.3839C68.5349 90.5989 62.2036 89.9753 56.4497 87.592C50.6958 85.2087 45.7779 81.1727 42.3179 75.9943C38.8578 70.816 37.011 64.7279 37.011 58.5C37.011 52.2721 38.8578 46.184 42.3179 41.0057C45.7779 35.8273 50.6958 31.7913 56.4497 29.408C62.2035 27.0247 68.5349 26.4011 74.6432 27.6161C80.7514 28.8311 86.3622 31.8301 90.7661 36.2339L99.2591 27.7409Z" fill="#EBEBEB"/>
<mask id="path-2-inside-1" fill="white">
<path d="M59.1127 16.025C52.818 17.4161 46.9111 20.189 41.8195 24.143C36.7278 28.0971 32.5787 33.1333 29.6721 38.8876C26.7656 44.6418 25.1744 50.9701 25.0135 57.4148C24.8527 63.8594 26.1263 70.2592 28.7422 76.1512L39.72 71.2775C37.8264 67.0123 36.9044 62.3796 37.0208 57.7144C37.1373 53.0492 38.2891 48.4683 40.3931 44.3029C42.4971 40.1375 45.5006 36.4918 49.1864 33.6295C52.8722 30.7673 57.148 28.76 61.7047 27.753L59.1127 16.025Z"/>
</mask>
<path d="M59.1127 16.025C52.818 17.4161 46.9111 20.189 41.8195 24.143C36.7278 28.0971 32.5787 33.1333 29.6721 38.8876C26.7656 44.6418 25.1744 50.9701 25.0135 57.4148C24.8527 63.8594 26.1263 70.2592 28.7422 76.1512L39.72 71.2775C37.8264 67.0123 36.9044 62.3796 37.0208 57.7144C37.1373 53.0492 38.2891 48.4683 40.3931 44.3029C42.4971 40.1375 45.5006 36.4918 49.1864 33.6295C52.8722 30.7673 57.148 28.76 61.7047 27.753L59.1127 16.025Z" fill="#494949" stroke="white" stroke-opacity="0.15" stroke-width="2" mask="url(#path-2-inside-1)"/>
<circle cx="68.5" cy="58.5" r="43.5" fill="#494949" fill-opacity="0.05"/>
</g>
<defs>
<filter id="filter0_d" x="0" y="-1.52588e-05" width="177" height="177" filterUnits="userSpaceOnUse" color-interpolation-filters="sRGB">
<feFlood flood-opacity="0" result="BackgroundImageFix"/>
<feColorMatrix in="SourceAlpha" type="matrix" values="0 0 0 0 0 0 0 0 0 0 0 0 0 0 0 0 0 0 127 0"/>
<feOffset dx="20" dy="30"/>
<feGaussianBlur stdDeviation="22.5"/>
<feColorMatrix type="matrix" values="0 0 0 0 0 0 0 0 0 0 0 0 0 0 0 0 0 0 0.25 0"/>
<feBlend mode="normal" in2="BackgroundImageFix" result="effect1_dropShadow"/>
<feBlend mode="normal" in="SourceGraphic" in2="effect1_dropShadow" result="shape"/>
</filter>
</defs>
</svg>
