<svg width="898" height="328" viewBox="0 0 898 328" fill="none" xmlns="http://www.w3.org/2000/svg">
<g filter="url(#filter0_d)">
<path d="M99.2591 27.7409C93.1756 21.6573 85.4246 17.5143 76.9864 15.8358C68.5482 14.1574 59.8019 15.0188 51.8533 18.3112C43.9047 21.6037 37.1109 27.1792 32.3311 34.3327C27.5512 41.4862 25 49.8965 25 58.5C25 67.1035 27.5512 75.5138 32.3311 82.6673C37.1109 89.8208 43.9047 95.3964 51.8533 98.6888C59.8019 101.981 68.5483 102.843 76.9864 101.164C85.4246 99.4857 93.1756 95.3427 99.2591 89.2591L90.7661 80.7661C86.3623 85.1699 80.7515 88.1689 74.6432 89.3839C68.5349 90.5989 62.2036 89.9753 56.4497 87.592C50.6958 85.2087 45.7779 81.1727 42.3179 75.9943C38.8578 70.816 37.011 64.7279 37.011 58.5C37.011 52.2721 38.8578 46.184 42.3179 41.0057C45.7779 35.8273 50.6958 31.7913 56.4497 29.408C62.2035 27.0247 68.5349 26.4011 74.6432 27.6161C80.7514 28.8311 86.3622 31.8301 90.7661 36.2339L99.2591 27.7409Z" fill="#EBEBEB"/>
<mask id="path-2-inside-1" fill="white">
<path d="M59.1127 16.025C52.818 17.4161 46.9111 20.189 41.8195 24.143C36.7278 28.0971 32.5787 33.1333 29.6721 38.8876C26.7656 44.6418 25.1744 50.9701 25.0135 57.4148C24.8527 63.8594 26.1263 70.2592 28.7422 76.1512L39.72 71.2775C37.8264 67.0123 36.9044 62.3796 37.0208 57.7144C37.1373 53.0492 38.2891 48.4683 40.3931 44.3029C42.4971 40.1375 45.5006 36.4918 49.1864 33.6295C52.8722 30.7673 57.148 28.76 61.7047 27.753L59.1127 16.025Z"/>
</mask>
<path d="M59.1127 16.025C52.818 17.4161 46.9111 20.189 41.8195 24.143C36.7278 28.0971 32.5787 33.1333 29.6721 38.8876C26.7656 44.6418 25.1744 50.9701 25.0135 57.4148C24.8527 63.8594 26.1263 70.2592 28.7422 76.1512L39.72 71.2775C37.8264 67.0123 36.9044 62.3796 37.0208 57.7144C37.1373 53.0492 38.2891 48.4683 40.3931 44.3029C42.4971 40.1375 45.5006 36.4918 49.1864 33.6295C52.8722 30.7673 57.148 28.76 61.7047 27.753L59.1127 16.025Z" fill="#494949" stroke="white" stroke-opacity="0.15" stroke-width="2" mask="url(#path-2-inside-1)"/>
<circle cx="68.5" cy="58.5" r="43.5" fill="#494949" fill-opacity="0.05"/>
</g>
<g filter="url(#filter1_d)">
<path d="M187.902 20.5C189.057 18.5 191.943 18.5 193.098 20.5L235.1 93.25C236.255 95.25 234.812 97.75 232.502 97.75H148.498C146.188 97.75 144.745 95.25 145.9 93.25L187.902 20.5Z" fill="#EBEBEB"/>
<path d="M177.618 97.75H232.707C235.586 97.75 236.042 95.9823 235.586 94.2818C235.474 93.8639 235.091 93.2909 235.091 93.2909L212.3 53.6545L201.4 61.0864L214.632 84.1168H177.618V97.75Z" fill="#494949"/>
<path d="M202.064 61.2387L212.136 54.3718L234.657 93.5401L234.666 93.5549L234.675 93.5688L234.675 93.5689L234.675 93.5689L234.675 93.569L234.676 93.5693L234.678 93.5728L234.688 93.5887C234.698 93.6031 234.711 93.6247 234.729 93.6522C234.763 93.7075 234.811 93.7852 234.861 93.8746C234.967 94.0639 235.065 94.2661 235.103 94.4112C235.315 95.1995 235.284 95.9004 234.975 96.385C234.684 96.8423 234.05 97.25 232.707 97.25H178.118V84.6168H214.632H215.496L215.066 83.8677L202.064 61.2387Z" stroke="white" stroke-opacity="0.15"/>
<path d="M190.185 41.7636L214.642 84.125H165.727L190.185 41.7636Z" fill="#494949"/>
</g>
<g filter="url(#filter2_d)">
<path d="M284 98H295.041V64.4825H311.556L332.848 98H346L322.202 60.8913C322.202 60.8913 338.485 57.3001 338.485 36.3517C338.485 15.4032 312.808 16.0017 312.808 16.0017H284V98Z" fill="#EBEBEB"/>
</g>
<path d="M324.767 64.6373H311.603L326.466 87.951H339.63L324.767 64.6373Z" fill="#494949"/>
<path d="M324.493 65.1373L338.718 87.451H326.74L312.515 65.1373H324.493Z" stroke="white" stroke-opacity="0.15"/>
<path d="M284 16H295.041V64.2353H284V16Z" fill="#494949"/>
<path d="M284.5 16.5H294.541V63.7353H284.5V16.5Z" stroke="white" stroke-opacity="0.15"/>
<g filter="url(#filter3_d)">
<path d="M385 16H405.013V82.3235H451V98H385V16Z" fill="#EBEBEB"/>
<path d="M385 16H405.439V98H385V16Z" fill="#494949"/>
<path d="M385.5 16.5H404.939V97.5H385.5V16.5Z" stroke="white" stroke-opacity="0.15"/>
</g>
<g filter="url(#filter4_d)">
<path d="M178 160H250V246.642H178V160Z" fill="#EBEBEB"/>
<path d="M194.562 177.543L220.843 247H194.562L194.562 177.543Z" fill="#494949"/>
<path d="M233.934 229.457L207.653 160H233.934L233.934 229.457Z" fill="#494949"/>
<path d="M178 217.437H194.822V247H178V217.437Z" fill="#494949"/>
<path d="M178.5 217.937H194.322V246.5H178.5V217.937Z" stroke="white" stroke-opacity="0.15"/>
<path d="M233.85 190.408H250V247H233.85V190.408Z" fill="#494949"/>
<path d="M234.35 190.908H249.5V246.5H234.35V190.908Z" stroke="white" stroke-opacity="0.15"/>
</g>
<g filter="url(#filter5_d)">
<path d="M292 160.846H313V248H292V160.846Z" fill="#EBEBEB"/>
<path d="M292 196.385H313V248H292V196.385Z" fill="#494949"/>
<path d="M292.5 196.885H312.5V247.5H292.5V196.885Z" stroke="white" stroke-opacity="0.15"/>
</g>
<g filter="url(#filter6_d)">
<path d="M356 163H409V180H376V197H409V214H376V231H409V248H376H356V163Z" fill="#EBEBEB"/>
<path d="M356 196.976L376 196.976V214.033H356V196.976Z" fill="#494949"/>
<path d="M356.5 197.476L375.5 197.476V213.533H356.5V197.476Z" stroke="white" stroke-opacity="0.15"/>
</g>
<g filter="url(#filter7_d)">
<path d="M452 250H463.041V214.439H479.556L500.848 250H514L490.202 210.629C490.202 210.629 506.485 206.818 506.485 184.593C506.485 162.367 480.808 163.002 480.808 163.002H452V250Z" fill="#494949"/>
<path d="M452 250H463.041V214.439H479.556L500.848 250H514L490.202 210.629C490.202 210.629 506.485 206.818 506.485 184.593C506.485 162.367 480.808 163.002 480.808 163.002H452V250Z" stroke="black" stroke-opacity="0.15"/>
</g>
<path d="M492.767 214.603H479.603L494.466 239.338H507.63L492.767 214.603Z" fill="#EBEBEB"/>
<path d="M492.484 215.103L506.746 238.838H494.749L480.487 215.103H492.484Z" stroke="black" stroke-opacity="0.15"/>
<path d="M452 163H463.041V214.176H452V163Z" fill="#EBEBEB"/>
<path d="M452.5 163.5H462.541V213.676H452.5V163.5Z" stroke="black" stroke-opacity="0.15"/>
<g filter="url(#filter8_d)">
<path d="M601.247 244.493C598.373 250.644 589.627 250.644 586.753 244.493L555.155 176.887C552.676 171.583 556.547 165.5 562.402 165.5H625.598C631.453 165.5 635.324 171.583 632.845 176.887L601.247 244.493Z" fill="#494949"/>
</g>
<path d="M575.484 220.451L555.687 179C555.687 179 552.687 174 554.687 169.5C556.687 165 561.687 165 561.687 165H567.187L593.39 220.451H575.484Z" fill="#EBEBEB"/>
<path d="M566.871 165.5L592.6 219.951H575.799L556.139 178.785L556.128 178.763L556.116 178.743L556.116 178.743L556.116 178.743L556.115 178.741L556.11 178.733C556.106 178.725 556.098 178.712 556.089 178.695C556.069 178.661 556.04 178.609 556.003 178.54C555.929 178.402 555.824 178.198 555.704 177.938C555.462 177.418 555.16 176.678 554.919 175.805C554.435 174.047 554.211 171.804 555.144 169.703C556.075 167.609 557.699 166.561 559.113 166.031C559.821 165.765 560.472 165.632 560.945 165.565C561.18 165.532 561.371 165.516 561.5 165.508C561.564 165.504 561.614 165.502 561.646 165.501C561.662 165.5 561.673 165.5 561.68 165.5L561.687 165.5L561.687 165.5H561.688H561.688H561.688H566.871Z" stroke="black" stroke-opacity="0.15"/>
<path d="M593.619 221.448L567.49 165.5H619.881L593.619 221.448Z" fill="#EBEBEB"/>
<g filter="url(#filter9_d)">
<path d="M685 165H738V182H705V199H738V216H705V233H738V250H705H685V165Z" fill="#494949"/>
<path d="M685 198.976L705 198.976V216.033H685V198.976Z" fill="#EBEBEB"/>
<path d="M685.5 199.476L704.5 199.476V215.533H685.5V199.476Z" stroke="black" stroke-opacity="0.15"/>
</g>
<g filter="url(#filter10_d)">
<path d="M833 189.739C833 184.451 831.387 179.281 828.365 174.884C825.344 170.486 821.049 167.059 816.024 165.035C810.999 163.012 805.469 162.482 800.135 163.514C794.801 164.546 789.901 167.092 786.055 170.832C782.209 174.571 779.589 179.336 778.528 184.523C777.467 189.709 778.012 195.086 780.093 199.972C782.175 204.858 785.699 209.034 790.222 211.972C794.744 214.91 800.061 216.478 805.5 216.478V199.58C803.498 199.58 801.542 199.002 799.877 197.921C798.213 196.84 796.916 195.303 796.15 193.505C795.384 191.707 795.184 189.728 795.574 187.819C795.965 185.91 796.928 184.157 798.344 182.781C799.759 181.405 801.562 180.467 803.526 180.088C805.489 179.708 807.524 179.903 809.373 180.648C811.222 181.393 812.803 182.654 813.915 184.272C815.027 185.89 815.62 187.793 815.62 189.739H833Z" fill="#494949"/>
<mask id="path-41-inside-2" fill="white">
<path d="M778 226.261C778 231.549 779.613 236.719 782.635 241.116C785.656 245.514 789.951 248.941 794.976 250.965C800.001 252.988 805.531 253.518 810.865 252.486C816.199 251.454 821.099 248.908 824.945 245.168C828.791 241.429 831.411 236.664 832.472 231.477C833.533 226.291 832.988 220.914 830.907 216.028C828.825 211.142 825.301 206.966 820.778 204.028C816.256 201.09 810.939 199.522 805.5 199.522L805.5 216.432C807.499 216.432 809.454 217.008 811.116 218.088C812.778 219.168 814.074 220.704 814.839 222.5C815.604 224.296 815.804 226.272 815.414 228.178C815.024 230.085 814.062 231.836 812.648 233.211C811.234 234.586 809.433 235.522 807.472 235.901C805.511 236.28 803.479 236.086 801.632 235.342C799.785 234.598 798.206 233.338 797.095 231.722C795.984 230.105 795.391 228.205 795.391 226.261L778 226.261Z"/>
</mask>
<path d="M778 226.261C778 231.549 779.613 236.719 782.635 241.116C785.656 245.514 789.951 248.941 794.976 250.965C800.001 252.988 805.531 253.518 810.865 252.486C816.199 251.454 821.099 248.908 824.945 245.168C828.791 241.429 831.411 236.664 832.472 231.477C833.533 226.291 832.988 220.914 830.907 216.028C828.825 211.142 825.301 206.966 820.778 204.028C816.256 201.09 810.939 199.522 805.5 199.522L805.5 216.432C807.499 216.432 809.454 217.008 811.116 218.088C812.778 219.168 814.074 220.704 814.839 222.5C815.604 224.296 815.804 226.272 815.414 228.178C815.024 230.085 814.062 231.836 812.648 233.211C811.234 234.586 809.433 235.522 807.472 235.901C805.511 236.28 803.479 236.086 801.632 235.342C799.785 234.598 798.206 233.338 797.095 231.722C795.984 230.105 795.391 228.205 795.391 226.261L778 226.261Z" fill="#EBEBEB" stroke="black" stroke-opacity="0.15" stroke-width="2" mask="url(#path-41-inside-2)"/>
</g>
<defs>
<filter id="filter0_d" x="0" y="-1.52588e-05" width="177" height="177" filterUnits="userSpaceOnUse" color-interpolation-filters="sRGB">
<feFlood flood-opacity="0" result="BackgroundImageFix"/>
<feColorMatrix in="SourceAlpha" type="matrix" values="0 0 0 0 0 0 0 0 0 0 0 0 0 0 0 0 0 0 127 0"/>
<feOffset dx="20" dy="30"/>
<feGaussianBlur stdDeviation="22.5"/>
<feColorMatrix type="matrix" values="0 0 0 0 0 0 0 0 0 0 0 0 0 0 0 0 0 0 0.25 0"/>
<feBlend mode="normal" in2="BackgroundImageFix" result="effect1_dropShadow"/>
<feBlend mode="normal" in="SourceGraphic" in2="effect1_dropShadow" result="shape"/>
</filter>
<filter id="filter1_d" x="111" y="1" width="199" height="199" filterUnits="userSpaceOnUse" color-interpolation-filters="sRGB">
<feFlood flood-opacity="0" result="BackgroundImageFix"/>
<feColorMatrix in="SourceAlpha" type="matrix" values="0 0 0 0 0 0 0 0 0 0 0 0 0 0 0 0 0 0 127 0"/>
<feOffset dx="20" dy="30"/>
<feGaussianBlur stdDeviation="22.5"/>
<feColorMatrix type="matrix" values="0 0 0 0 0 0 0 0 0 0 0 0 0 0 0 0 0 0 0.25 0"/>
<feBlend mode="normal" in2="BackgroundImageFix" result="effect1_dropShadow"/>
<feBlend mode="normal" in="SourceGraphic" in2="effect1_dropShadow" result="shape"/>
</filter>
<filter id="filter2_d" x="284" y="16" width="102" height="132" filterUnits="userSpaceOnUse" color-interpolation-filters="sRGB">
<feFlood flood-opacity="0" result="BackgroundImageFix"/>
<feColorMatrix in="SourceAlpha" type="matrix" values="0 0 0 0 0 0 0 0 0 0 0 0 0 0 0 0 0 0 127 0"/>
<feOffset dx="20" dy="30"/>
<feGaussianBlur stdDeviation="10"/>
<feColorMatrix type="matrix" values="0 0 0 0 0 0 0 0 0 0 0 0 0 0 0 0 0 0 0.25 0"/>
<feBlend mode="normal" in2="BackgroundImageFix" result="effect1_dropShadow"/>
<feBlend mode="normal" in="SourceGraphic" in2="effect1_dropShadow" result="shape"/>
</filter>
<filter id="filter3_d" x="360" y="1" width="156" height="172" filterUnits="userSpaceOnUse" color-interpolation-filters="sRGB">
<feFlood flood-opacity="0" result="BackgroundImageFix"/>
<feColorMatrix in="SourceAlpha" type="matrix" values="0 0 0 0 0 0 0 0 0 0 0 0 0 0 0 0 0 0 127 0"/>
<feOffset dx="20" dy="30"/>
<feGaussianBlur stdDeviation="22.5"/>
<feColorMatrix type="matrix" values="0 0 0 0 0 0 0 0 0 0 0 0 0 0 0 0 0 0 0.4 0"/>
<feBlend mode="normal" in2="BackgroundImageFix" result="effect1_dropShadow"/>
<feBlend mode="normal" in="SourceGraphic" in2="effect1_dropShadow" result="shape"/>
</filter>
<filter id="filter4_d" x="153" y="145" width="162" height="177" filterUnits="userSpaceOnUse" color-interpolation-filters="sRGB">
<feFlood flood-opacity="0" result="BackgroundImageFix"/>
<feColorMatrix in="SourceAlpha" type="matrix" values="0 0 0 0 0 0 0 0 0 0 0 0 0 0 0 0 0 0 127 0"/>
<feOffset dx="20" dy="30"/>
<feGaussianBlur stdDeviation="22.5"/>
<feColorMatrix type="matrix" values="0 0 0 0 0 0 0 0 0 0 0 0 0 0 0 0 0 0 0.25 0"/>
<feBlend mode="normal" in2="BackgroundImageFix" result="effect1_dropShadow"/>
<feBlend mode="normal" in="SourceGraphic" in2="effect1_dropShadow" result="shape"/>
</filter>
<filter id="filter5_d" x="267" y="145" width="111" height="178" filterUnits="userSpaceOnUse" color-interpolation-filters="sRGB">
<feFlood flood-opacity="0" result="BackgroundImageFix"/>
<feColorMatrix in="SourceAlpha" type="matrix" values="0 0 0 0 0 0 0 0 0 0 0 0 0 0 0 0 0 0 127 0"/>
<feOffset dx="20" dy="30"/>
<feGaussianBlur stdDeviation="22.5"/>
<feColorMatrix type="matrix" values="0 0 0 0 0 0 0 0 0 0 0 0 0 0 0 0 0 0 0.5 0"/>
<feBlend mode="normal" in2="BackgroundImageFix" result="effect1_dropShadow"/>
<feBlend mode="normal" in="SourceGraphic" in2="effect1_dropShadow" result="shape"/>
</filter>
<filter id="filter6_d" x="331" y="148" width="143" height="175" filterUnits="userSpaceOnUse" color-interpolation-filters="sRGB">
<feFlood flood-opacity="0" result="BackgroundImageFix"/>
<feColorMatrix in="SourceAlpha" type="matrix" values="0 0 0 0 0 0 0 0 0 0 0 0 0 0 0 0 0 0 127 0"/>
<feOffset dx="20" dy="30"/>
<feGaussianBlur stdDeviation="22.5"/>
<feColorMatrix type="matrix" values="0 0 0 0 0 0 0 0 0 0 0 0 0 0 0 0 0 0 0.3 0"/>
<feBlend mode="normal" in2="BackgroundImageFix" result="effect1_dropShadow"/>
<feBlend mode="normal" in="SourceGraphic" in2="effect1_dropShadow" result="shape"/>
</filter>
<filter id="filter7_d" x="451.5" y="162.5" width="103.386" height="138" filterUnits="userSpaceOnUse" color-interpolation-filters="sRGB">
<feFlood flood-opacity="0" result="BackgroundImageFix"/>
<feColorMatrix in="SourceAlpha" type="matrix" values="0 0 0 0 0 0 0 0 0 0 0 0 0 0 0 0 0 0 127 0"/>
<feOffset dx="20" dy="30"/>
<feGaussianBlur stdDeviation="10"/>
<feColorMatrix type="matrix" values="0 0 0 0 0 0 0 0 0 0 0 0 0 0 0 0 0 0 0.25 0"/>
<feBlend mode="normal" in2="BackgroundImageFix" result="effect1_dropShadow"/>
<feBlend mode="normal" in="SourceGraphic" in2="effect1_dropShadow" result="shape"/>
</filter>
<filter id="filter8_d" x="529.393" y="150.5" width="169.214" height="173.606" filterUnits="userSpaceOnUse" color-interpolation-filters="sRGB">
<feFlood flood-opacity="0" result="BackgroundImageFix"/>
<feColorMatrix in="SourceAlpha" type="matrix" values="0 0 0 0 0 0 0 0 0 0 0 0 0 0 0 0 0 0 127 0"/>
<feOffset dx="20" dy="30"/>
<feGaussianBlur stdDeviation="22.5"/>
<feColorMatrix type="matrix" values="0 0 0 0 0 0 0 0 0 0 0 0 0 0 0 0 0 0 0.4 0"/>
<feBlend mode="normal" in2="BackgroundImageFix" result="effect1_dropShadow"/>
<feBlend mode="normal" in="SourceGraphic" in2="effect1_dropShadow" result="shape"/>
</filter>
<filter id="filter9_d" x="660" y="150" width="143" height="175" filterUnits="userSpaceOnUse" color-interpolation-filters="sRGB">
<feFlood flood-opacity="0" result="BackgroundImageFix"/>
<feColorMatrix in="SourceAlpha" type="matrix" values="0 0 0 0 0 0 0 0 0 0 0 0 0 0 0 0 0 0 127 0"/>
<feOffset dx="20" dy="30"/>
<feGaussianBlur stdDeviation="22.5"/>
<feColorMatrix type="matrix" values="0 0 0 0 0 0 0 0 0 0 0 0 0 0 0 0 0 0 0.4 0"/>
<feBlend mode="normal" in2="BackgroundImageFix" result="effect1_dropShadow"/>
<feBlend mode="normal" in="SourceGraphic" in2="effect1_dropShadow" result="shape"/>
</filter>
<filter id="filter10_d" x="753" y="148" width="145" height="180" filterUnits="userSpaceOnUse" color-interpolation-filters="sRGB">
<feFlood flood-opacity="0" result="BackgroundImageFix"/>
<feColorMatrix in="SourceAlpha" type="matrix" values="0 0 0 0 0 0 0 0 0 0 0 0 0 0 0 0 0 0 127 0"/>
<feOffset dx="20" dy="30"/>
<feGaussianBlur stdDeviation="22.5"/>
<feColorMatrix type="matrix" values="0 0 0 0 0 0 0 0 0 0 0 0 0 0 0 0 0 0 0.4 0"/>
<feBlend mode="normal" in2="BackgroundImageFix" result="effect1_dropShadow"/>
<feBlend mode="normal" in="SourceGraphic" in2="effect1_dropShadow" result="shape"/>
</filter>
</defs>
</svg>
